<svg width="1200" height="800" viewBox="0 0 1200 800" fill="none" xmlns="http://www.w3.org/2000/svg">
  <rect width="1200" height="800" rx="32" fill="#020617"/>
  <circle cx="220" cy="110" r="180" fill="#0EA5E9" fill-opacity="0.18"/>
  <circle cx="1010" cy="220" r="210" fill="#2563EB" fill-opacity="0.22"/>
  <rect x="80" y="92" width="1040" height="620" rx="24" fill="#0B1324" stroke="#1E293B"/>
  <rect x="120" y="140" width="260" height="100" rx="16" fill="#0F172A" stroke="#334155"/>
  <rect x="410" y="140" width="260" height="100" rx="16" fill="#0F172A" stroke="#334155"/>
  <rect x="700" y="140" width="260" height="100" rx="16" fill="#0F172A" stroke="#334155"/>
  <text x="140" y="175" fill="#94A3B8" font-family="Arial" font-size="16">Devis en cours</text>
  <text x="140" y="214" fill="#F8FAFC" font-family="Arial" font-size="32" font-weight="700">+32%</text>
  <text x="430" y="175" fill="#94A3B8" font-family="Arial" font-size="16">Temps traitement</text>
  <text x="430" y="214" fill="#F8FAFC" font-family="Arial" font-size="32" font-weight="700">-60%</text>
  <text x="720" y="175" fill="#94A3B8" font-family="Arial" font-size="16">Disponibilité IA</text>
  <text x="720" y="214" fill="#F8FAFC" font-family="Arial" font-size="32" font-weight="700">24/7</text>
  <rect x="120" y="280" width="840" height="240" rx="20" fill="#0F172A" stroke="#334155"/>
  <path d="M160 455L250 420L350 438L450 372L560 388L660 336L760 362L900 318" stroke="#22D3EE" stroke-width="6" stroke-linecap="round"/>
  <rect x="990" y="280" width="130" height="240" rx="20" fill="#0F172A" stroke="#334155"/>
  <rect x="1014" y="312" width="82" height="18" rx="9" fill="#0EA5E9" fill-opacity="0.28"/>
  <rect x="1014" y="346" width="82" height="18" rx="9" fill="#22C55E" fill-opacity="0.28"/>
  <rect x="1014" y="380" width="82" height="18" rx="9" fill="#F59E0B" fill-opacity="0.28"/>
  <rect x="120" y="552" width="1000" height="120" rx="20" fill="#0F172A" stroke="#334155"/>
  <text x="146" y="598" fill="#E2E8F0" font-family="Arial" font-size="20">Pipeline: WhatsApp → Agent IA → CRM → Devis → Relance</text>
</svg>
